<svg width="160" height="160" viewBox="0 0 160 160" fill="none" xmlns="http://www.w3.org/2000/svg">
<g filter="url(#filter0_d_205_650)">
<path d="M98.1806 32.1332C97.4264 31.8408 96.6007 32.2888 96.2612 33.023C94.6811 36.4396 90.9503 38.5057 87.0684 37.8212C83.1864 37.1367 80.3872 33.9192 80.071 30.1682C80.003 29.3622 79.3803 28.6588 78.5717 28.6756C77.7616 28.6924 77.1751 29.423 77.1422 30.2326C76.9897 33.9936 74.3336 37.3299 70.4853 38.1831C66.6383 39.0359 62.8224 37.1362 61.0938 33.794C60.7218 33.0747 59.8778 32.6625 59.1368 32.9894C58.3969 33.3158 58.1333 34.2144 58.412 34.9736C59.7084 38.506 58.531 42.603 55.3032 44.8632C52.0753 47.1233 47.8226 46.8285 44.9467 44.402C44.3286 43.8805 43.3941 43.8209 42.8343 44.4045C42.2737 44.989 42.3723 45.923 42.921 46.5187C45.4703 49.2861 45.9503 53.5216 43.8331 56.8448C41.7152 60.1692 37.6717 61.524 34.0853 60.381C33.3134 60.135 32.4263 60.4363 32.1334 61.1917C31.841 61.9458 32.289 62.7715 33.0231 63.111C36.4398 64.6911 38.5059 68.4219 37.8214 72.3039C37.1369 76.1857 33.9196 78.9848 30.1688 79.3012C29.3625 79.3692 28.6588 79.9922 28.6756 80.8012C28.6924 81.6115 29.4233 82.1983 30.2332 82.2313C33.994 82.3841 37.3299 85.0401 38.183 88.8881C39.0359 92.7351 37.1363 96.551 33.7942 98.2796C33.0748 98.6516 32.6627 99.4956 32.9896 100.237C33.316 100.976 34.2146 101.24 34.9737 100.961C38.5062 99.6649 42.6032 100.842 44.8634 104.07C47.1236 107.298 46.8287 111.551 44.4023 114.427C43.8808 115.045 43.8211 115.979 44.4048 116.539C44.9893 117.1 45.9233 117.001 46.519 116.452C49.2864 113.903 53.5219 113.423 56.8452 115.54C60.1696 117.658 61.5245 121.701 60.3814 125.288C60.1354 126.06 60.4367 126.947 61.1922 127.24C61.9463 127.532 62.772 127.084 63.1115 126.35C64.6917 122.933 68.4224 120.867 72.3044 121.552C76.1864 122.236 78.9855 125.454 79.3018 129.205C79.3698 130.011 79.9924 130.714 80.8011 130.697C81.6112 130.681 82.1978 129.95 82.2306 129.14C82.3832 125.379 85.0392 122.043 88.8875 121.19C92.7344 120.337 96.5503 122.237 98.2789 125.579C98.651 126.298 99.4951 126.71 100.236 126.384C100.976 126.057 101.24 125.158 100.961 124.399C99.6645 120.867 100.842 116.77 104.07 114.509C107.298 112.249 111.55 112.544 114.426 114.97C115.045 115.492 115.979 115.552 116.539 114.968C117.1 114.383 117.001 113.449 116.452 112.854C113.903 110.086 113.423 105.851 115.54 102.527C117.658 99.2029 121.701 97.848 125.288 98.991C126.06 99.237 126.947 98.9357 127.24 98.1802C127.532 97.426 127.084 96.6002 126.35 96.2607C122.933 94.6806 120.867 90.9498 121.552 87.0678C122.236 83.1857 125.454 80.3865 129.205 80.0704C130.011 80.0025 130.714 79.3801 130.697 78.5717C130.68 77.762 129.95 77.1756 129.141 77.1428C125.379 76.9906 122.043 74.3344 121.19 70.4859C120.337 66.6389 122.237 62.8229 125.579 61.0944C126.298 60.7223 126.71 59.8782 126.383 59.1371C126.057 58.3971 125.158 58.1335 124.399 58.4122C120.867 59.7088 116.77 58.5314 114.509 55.3034C112.249 52.0755 112.544 47.8228 114.971 44.9468C115.492 44.3286 115.552 43.394 114.968 42.8341C114.384 42.2734 113.449 42.3721 112.854 42.9209C110.086 45.4702 105.851 45.9501 102.528 43.833C99.2032 41.7151 97.8484 37.6716 98.9914 34.0852C99.2374 33.3132 98.9361 32.426 98.1806 32.1332Z" fill="url(#paint0_radial_205_650)"/>
</g>
<g filter="url(#filter1_i_205_650)">
<circle cx="79.6863" cy="79.685" r="34.0074" fill="url(#paint1_linear_205_650)"/>
</g>
<g filter="url(#filter2_ii_205_650)">
<circle cx="79.6863" cy="79.685" r="34.0074" fill="url(#paint2_linear_205_650)"/>
</g>
<g filter="url(#filter3_f_205_650)">
<ellipse cx="79.6864" cy="65.5152" rx="19.8376" ry="14.1697" fill="url(#paint3_linear_205_650)" style="mix-blend-mode:soft-light"/>
</g>
<defs>
<filter id="filter0_d_205_650" x="0.3358" y="0.3358" width="158.701" height="158.701" filterUnits="userSpaceOnUse" color-interpolation-filters="sRGB">
<feFlood flood-opacity="0" result="BackgroundImageFix"/>
<feColorMatrix in="SourceAlpha" type="matrix" values="0 0 0 0 0 0 0 0 0 0 0 0 0 0 0 0 0 0 127 0" result="hardAlpha"/>
<feOffset/>
<feGaussianBlur stdDeviation="14.1697"/>
<feComposite in2="hardAlpha" operator="out"/>
<feColorMatrix type="matrix" values="0 0 0 0 0.980392 0 0 0 0 0.8 0 0 0 0 0.0823529 0 0 0 0.7 0"/>
<feBlend mode="normal" in2="BackgroundImageFix" result="effect1_dropShadow_205_650"/>
<feBlend mode="normal" in="SourceGraphic" in2="effect1_dropShadow_205_650" result="shape"/>
</filter>
<filter id="filter1_i_205_650" x="45.679" y="42.8437" width="68.0148" height="70.8487" filterUnits="userSpaceOnUse" color-interpolation-filters="sRGB">
<feFlood flood-opacity="0" result="BackgroundImageFix"/>
<feBlend mode="normal" in="SourceGraphic" in2="BackgroundImageFix" result="shape"/>
<feColorMatrix in="SourceAlpha" type="matrix" values="0 0 0 0 0 0 0 0 0 0 0 0 0 0 0 0 0 0 127 0" result="hardAlpha"/>
<feOffset dy="-2.83395"/>
<feGaussianBlur stdDeviation="2.83395"/>
<feComposite in2="hardAlpha" operator="arithmetic" k2="-1" k3="1"/>
<feColorMatrix type="matrix" values="0 0 0 0 0.992157 0 0 0 0 0.878431 0 0 0 0 0.278431 0 0 0 1 0"/>
<feBlend mode="normal" in2="shape" result="effect1_innerShadow_205_650"/>
</filter>
<filter id="filter2_ii_205_650" x="45.679" y="42.8437" width="68.0148" height="73.6827" filterUnits="userSpaceOnUse" color-interpolation-filters="sRGB">
<feFlood flood-opacity="0" result="BackgroundImageFix"/>
<feBlend mode="normal" in="SourceGraphic" in2="BackgroundImageFix" result="shape"/>
<feColorMatrix in="SourceAlpha" type="matrix" values="0 0 0 0 0 0 0 0 0 0 0 0 0 0 0 0 0 0 127 0" result="hardAlpha"/>
<feOffset dy="-2.83395"/>
<feGaussianBlur stdDeviation="4.25092"/>
<feComposite in2="hardAlpha" operator="arithmetic" k2="-1" k3="1"/>
<feColorMatrix type="matrix" values="0 0 0 0 0.992157 0 0 0 0 0.878431 0 0 0 0 0.278431 0 0 0 1 0"/>
<feBlend mode="normal" in2="shape" result="effect1_innerShadow_205_650"/>
<feColorMatrix in="SourceAlpha" type="matrix" values="0 0 0 0 0 0 0 0 0 0 0 0 0 0 0 0 0 0 127 0" result="hardAlpha"/>
<feOffset dy="2.83395"/>
<feGaussianBlur stdDeviation="1.41697"/>
<feComposite in2="hardAlpha" operator="arithmetic" k2="-1" k3="1"/>
<feColorMatrix type="matrix" values="0 0 0 0 0.996078 0 0 0 0 0.941176 0 0 0 0 0.541176 0 0 0 1 0"/>
<feBlend mode="normal" in2="effect1_innerShadow_205_650" result="effect2_innerShadow_205_650"/>
</filter>
<filter id="filter3_f_205_650" x="54.1809" y="45.6776" width="51.0111" height="39.6753" filterUnits="userSpaceOnUse" color-interpolation-filters="sRGB">
<feFlood flood-opacity="0" result="BackgroundImageFix"/>
<feBlend mode="normal" in="SourceGraphic" in2="BackgroundImageFix" result="shape"/>
<feGaussianBlur stdDeviation="2.83395" result="effect1_foregroundBlur_205_650"/>
</filter>
<radialGradient id="paint0_radial_205_650" cx="0" cy="0" r="1" gradientUnits="userSpaceOnUse" gradientTransform="translate(79.6864 45.6776) rotate(90) scale(85.0185 85.0183)">
<stop stop-color="#FACC15"/>
<stop offset="1" stop-color="#D97706"/>
</radialGradient>
<linearGradient id="paint1_linear_205_650" x1="79.6863" y1="45.6776" x2="79.6863" y2="113.692" gradientUnits="userSpaceOnUse">
<stop stop-color="#FEF08A"/>
<stop offset="1" stop-color="#F59E0B"/>
</linearGradient>
<linearGradient id="paint2_linear_205_650" x1="79.6863" y1="45.6776" x2="79.6863" y2="113.692" gradientUnits="userSpaceOnUse">
<stop stop-color="#FFF28F"/>
<stop offset="1" stop-color="#F79B00"/>
</linearGradient>
<linearGradient id="paint3_linear_205_650" x1="79.6864" y1="51.3455" x2="79.6864" y2="79.685" gradientUnits="userSpaceOnUse">
<stop stop-color="#FEF9C3"/>
<stop offset="1" stop-color="#FEF9C3" stop-opacity="0"/>
<stop offset="1" stop-color="#FEF9C3" stop-opacity="0.2"/>
</linearGradient>
</defs>
</svg>
